<?xml version="1.0" encoding="utf-8"?>
<!-- Generator: Adobe Illustrator 22.0.1, SVG Export Plug-In . SVG Version: 6.00 Build 0)  -->
<svg version="1.1" id="Layer_1" xmlns="http://www.w3.org/2000/svg" xmlns:xlink="http://www.w3.org/1999/xlink" x="0px" y="0px"
	 viewBox="0 0 25 25" style="enable-background:new 0 0 25 25;" xml:space="preserve">
<style type="text/css">
	.st0{fill:#8B1F60;}
</style>
<title>noun_376853_cc</title>
<desc>Created using Figma</desc>
<g id="Canvas" transform="translate(-4909 -2705)">
	<g id="noun_376853_cc">
		<g id="Group">
			<g id="Vector">
				<g transform="translate(4909 2705)">
					<path id="path0_fill" class="st0" d="M4922,2705c-3.3,0-6.5,1.3-8.8,3.7s-3.7,5.5-3.7,8.8s1.3,6.5,3.7,8.8s5.5,3.7,8.8,3.7
						c3.3,0,6.5-1.3,8.8-3.7s3.7-5.5,3.7-8.8s-1.3-6.5-3.7-8.8S4925.3,2705,4922,2705L4922,2705z M4922,2709.5c4.4,0,8,3.6,8,8
						s-3.6,8-8,8s-8-3.6-8-8S4917.6,2709.5,4922,2709.5z M4922,2710.5c-0.2,0-0.5,0.1-0.8,0.4s-0.6,0.8-0.8,1.4
						c-0.2,0.6-0.4,1.3-0.6,2.1h4.3c-0.1-0.8-0.3-1.5-0.6-2.1c-0.2-0.6-0.5-1.1-0.8-1.4S4922.3,2710.5,4922,2710.5z M4920.1,2710.8
						c-2,0.6-3.6,1.9-4.4,3.7h3.1c0.2-0.9,0.4-1.8,0.7-2.5C4919.7,2711.5,4919.9,2711.1,4920.1,2710.8z M4923.9,2710.8
						c0.2,0.4,0.5,0.8,0.6,1.2c0.3,0.7,0.5,1.6,0.7,2.5h3.1C4927.5,2712.7,4925.9,2711.3,4923.9,2710.8z M4915.3,2715.5
						c-0.2,0.6-0.3,1.3-0.3,2c0,0.7,0.1,1.4,0.3,2h3.4c-0.1-0.6-0.1-1.3-0.1-2s0-1.4,0.1-2H4915.3z M4919.7,2715.5
						c-0.1,0.6-0.1,1.3-0.1,2c0,0.7,0.1,1.4,0.1,2h4.6c0.1-0.6,0.1-1.3,0.1-2c0-0.7-0.1-1.4-0.1-2H4919.7z M4925.3,2715.5
						c0.1,0.6,0.1,1.3,0.1,2s0,1.4-0.1,2h3.4c0.2-0.6,0.3-1.3,0.3-2c0-0.7-0.1-1.4-0.3-2H4925.3z M4915.7,2720.5
						c0.9,1.8,2.5,3.2,4.4,3.7c-0.2-0.4-0.5-0.8-0.6-1.2c-0.3-0.7-0.5-1.6-0.7-2.5H4915.7z M4919.9,2720.5c0.1,0.8,0.3,1.5,0.6,2.1
						c0.2,0.6,0.5,1.1,0.8,1.4s0.5,0.4,0.8,0.4s0.5-0.1,0.8-0.4s0.6-0.8,0.8-1.4c0.2-0.6,0.4-1.3,0.6-2.1H4919.9z M4925.2,2720.5
						c-0.2,0.9-0.4,1.8-0.7,2.5c-0.2,0.5-0.4,0.9-0.6,1.2c2-0.6,3.6-1.9,4.4-3.7H4925.2z"/>
				</g>
			</g>
		</g>
	</g>
</g>
</svg>
